<svg xmlns="http://www.w3.org/2000/svg" xmlns:xlink="http://www.w3.org/1999/xlink" width="375" height="812" viewBox="0 0 375 812">
  <defs>
    <clipPath id="clip-path">
      <path id="Clip_4" data-name="Clip 4" d="M0,0H115.869V110.12H0Z" fill="none"/>
    </clipPath>
    <clipPath id="clip-_1_Splash">
      <rect width="375" height="812"/>
    </clipPath>
  </defs>
  <g id="_1_Splash" data-name="1 Splash" clip-path="url(#clip-_1_Splash)">
    <rect width="375" height="812" fill="#2a2836"/>
    <g id="Bars_Home_Indicator_On_Dark" data-name="Bars/Home Indicator/On Dark" transform="translate(121 778)">
      <rect id="Bars_Home_Indicator_On_Dark_background" data-name="Bars/Home Indicator/On Dark background" width="134" height="34" fill="none"/>
      <rect id="Home_Indicator" data-name="Home Indicator" width="134" height="5" rx="2.5" transform="translate(0 20)" fill="#fff"/>
    </g>
    <g id="Bars_Status_Bar_-_iPhone_X_On_Light" data-name="Bars/Status Bar - iPhone X/On Light">
      <rect id="Bars_Status_Bar_-_iPhone_X_On_Dark_background" data-name="Bars/Status Bar - iPhone X/On Dark background" width="375" height="44" fill="none"/>
      <g id="Battery" transform="translate(336 17)">
        <g id="Border" transform="translate(0 0.333)" fill="none" stroke="#fff" stroke-miterlimit="10" stroke-width="1" opacity="0.35">
          <rect width="22" height="11.333" rx="2.667" stroke="none"/>
          <rect x="0.5" y="0.5" width="21" height="10.333" rx="2.167" fill="none"/>
        </g>
        <path id="Cap" d="M0,0V4A2.17,2.17,0,0,0,1.328,2,2.17,2.17,0,0,0,0,0" transform="translate(23 4)" fill="#fff" opacity="0.4"/>
        <rect id="Capacity" width="18" height="7.333" rx="1.333" transform="translate(2 2.333)" fill="#fff"/>
      </g>
      <path id="Wifi" d="M7.637,10.966a.313.313,0,0,1-.221-.093l-2-2.016a.313.313,0,0,1,.01-.456,3.421,3.421,0,0,1,4.419,0,.311.311,0,0,1,.1.226.315.315,0,0,1-.094.23l-2,2.016A.308.308,0,0,1,7.637,10.966Zm3.508-3.538a.311.311,0,0,1-.214-.085,4.9,4.9,0,0,0-6.585,0,.311.311,0,0,1-.214.085.307.307,0,0,1-.22-.091L2.758,6.17a.322.322,0,0,1,0-.459,7.158,7.158,0,0,1,9.752,0,.322.322,0,0,1,.1.229.326.326,0,0,1-.094.23L11.364,7.337A.309.309,0,0,1,11.144,7.428ZM13.8,4.743a.305.305,0,0,1-.214-.087,8.64,8.64,0,0,0-11.907,0,.309.309,0,0,1-.434,0L.094,3.486a.322.322,0,0,1,0-.456,10.9,10.9,0,0,1,15.08,0,.325.325,0,0,1,.1.228.319.319,0,0,1-.094.229L14.023,4.652A.306.306,0,0,1,13.8,4.743Z" transform="translate(315.694 17.331)" fill="#fff"/>
      <path id="Cellular_Connection" d="M16,10.667H15a1,1,0,0,1-1-1V1a1,1,0,0,1,1-1h1a1,1,0,0,1,1,1V9.667A1,1,0,0,1,16,10.667Zm-4.667,0h-1a1,1,0,0,1-1-1V3.334a1,1,0,0,1,1-1h1a1,1,0,0,1,1,1V9.667A1,1,0,0,1,11.334,10.667Zm-4.667,0h-1a1,1,0,0,1-1-1v-4a1,1,0,0,1,1-1h1a1,1,0,0,1,1,1v4A1,1,0,0,1,6.666,10.667ZM2,10.667H1a1,1,0,0,1-1-1v-2a1,1,0,0,1,1-1H2a1,1,0,0,1,1,1v2A1,1,0,0,1,2,10.667Z" transform="translate(293.667 17.667)" fill="#fff"/>
      <g id="Time_Style" data-name="Time Style" transform="translate(21 9)">
        <rect id="Bars_Status_Bar_-_iPhone_X__Time_On_Dark_background" data-name="Bars/Status Bar - iPhone X/_Time/On Dark background" width="54" height="21" fill="none"/>
        <text id="_Time" data-name="↳ Time" transform="translate(0 5.33)" fill="#fff" font-size="15" font-family="SegoeUI, Segoe UI" letter-spacing="-0.02em"><tspan x="13.695" y="16">9:41</tspan></text>
      </g>
    </g>
    <g id="Group" transform="translate(119 311)">
      <g id="Group_14" data-name="Group 14" transform="translate(11.103 0.13)">
        <path id="Fill_1" data-name="Fill 1" d="M92.494,43.683H48.948a1.683,1.683,0,0,1-1.693-1.67V32.919a1.683,1.683,0,0,0-1.692-1.67H42.9a1.683,1.683,0,0,0-1.693,1.67v9.094a1.683,1.683,0,0,1-1.693,1.67H1.7A1.658,1.658,0,0,1,.112,42.6a1.622,1.622,0,0,1,.455-1.825L46.107.428a1.71,1.71,0,0,1,2.267,0L93.63,40.775a1.623,1.623,0,0,1,.45,1.825A1.658,1.658,0,0,1,92.494,43.683ZM53.587,27.723a6.417,6.417,0,0,1,.69.037c2.719.3,4.79,1.958,6.457,3.544a.3.3,0,0,0,.211.086.351.351,0,0,0,.225-.086c1.328-1.119.224-2.822-.582-4.065-.1-.149-.187-.289-.269-.421-.156-.251-.308-.5-.469-.771-1.08-1.791-2.3-3.819-4.32-4.669a12.3,12.3,0,0,0-4.588-.674c-.574,0-1.154.014-1.667.027h-.036c-.546.013-1.061.025-1.563.025-.288,0-.543,0-.781-.012-.521-.019-.943-.028-1.327-.028a14.892,14.892,0,0,0-2.762.22,7.252,7.252,0,0,0-1.962.752,9.6,9.6,0,0,1-1.345.592,1.79,1.79,0,0,1-.554.087,4.316,4.316,0,0,1-1.808-.584l-.007,0a4.3,4.3,0,0,0-1.785-.58,1.868,1.868,0,0,0-1.273.524,2.775,2.775,0,0,0-.721,1.812l0,.017a16.875,16.875,0,0,0-.095,4.718c.178.99.741,1.558,1.545,1.558a2.31,2.31,0,0,0,.971-.242,3.32,3.32,0,0,0,.854-.69,2.143,2.143,0,0,1,1.37-.832,1.055,1.055,0,0,1,.177.015A4.272,4.272,0,0,1,40.3,29.7a7.588,7.588,0,0,0,.911.929l.458-.011c1.017-.025,2.069-.051,3.1-.051.94,0,1.765.022,2.522.066,0-.007,0-.015,0-.023s0-.016,0-.024A9.623,9.623,0,0,1,53.587,27.723Z" transform="translate(10.919 9.378)" fill="#fec516"/>
        <g id="Group_5" data-name="Group 5">
          <path id="Clip_4-2" data-name="Clip 4" d="M0,0H115.869V110.12H0Z" fill="none"/>
          <g id="Group_5-2" data-name="Group 5" clip-path="url(#clip-path)">
            <path id="Fill_3" data-name="Fill 3" d="M113.148,47.277l-49.62-45.1a8.283,8.283,0,0,0-11.189,0L2.72,47.277A8.282,8.282,0,0,0,8.314,61.686h4.433a.856.856,0,0,1,.858.855V91.472a.856.856,0,0,0,.857.855H57.934V92.2h.014V54.223a.856.856,0,0,0-.857-.855H52.738a.856.856,0,0,0-.858.855V86.216a.856.856,0,0,1-.857.855H19.732a.856.856,0,0,1-.857-.855V58.128a1.7,1.7,0,0,0-1.7-1.7H8.424a3.132,3.132,0,0,1-2.949-1.954,3.005,3.005,0,0,1,.794-3.314l49.62-45.1a3.029,3.029,0,0,1,4.091,0l49.619,45.1a3.027,3.027,0,0,1-2.044,5.268H98.693a1.7,1.7,0,0,0-1.7,1.7v45.884a.856.856,0,0,1-.857.855H61.29l-46.2-.232a1.7,1.7,0,0,0-1.713,1.691l-.01,1.855a1.7,1.7,0,0,0,1.7,1.71l46.216.232H96.361a5.9,5.9,0,0,0,5.9-5.888V62.541a.856.856,0,0,1,.857-.855h4.435a8.282,8.282,0,0,0,5.593-14.409" transform="translate(0 0)" fill="#fec516"/>
          </g>
        </g>
        <path id="Fill_6" data-name="Fill 6" d="M.683,0A.683.683,0,0,0,.2,1.165a.683.683,0,0,0,.965,0A.682.682,0,0,0,.683,0" transform="translate(79.174 70.805)" fill="#fec516"/>
        <path id="Fill_8" data-name="Fill 8" d="M31.07,35.492H1.69A1.71,1.71,0,0,1,0,33.767V1.726A1.711,1.711,0,0,1,1.69,0H31.07a1.711,1.711,0,0,1,1.692,1.726V33.767A1.71,1.71,0,0,1,31.07,35.492ZM26.711,5.94c-1.55,0-3.706,1.022-6.235,2.956a37.238,37.238,0,0,0-3.56,3.115l-.006.006a.82.82,0,0,0-.205.392,1.163,1.163,0,0,0,.041.533c.018.074.036.148.055.222.052.207.106.42.143.634a8.027,8.027,0,0,1,.077,2.069,10.235,10.235,0,0,1-.359,2.021,13.084,13.084,0,0,1-.746,1.939,27.953,27.953,0,0,1-2.135,3.643c-.48.72-1,1.43-1.5,2.116-.274.375-.557.762-.83,1.146a2.32,2.32,0,0,0-.334.6,1.738,1.738,0,0,0-.074.752,1.69,1.69,0,0,0,.823,1.249,1.634,1.634,0,0,0,1.654-.02,3.049,3.049,0,0,0,.494-.407l.091-.085c.279-.26.561-.539.862-.853a21.74,21.74,0,0,0,4.653-7.059,12.528,12.528,0,0,0,.6-1.937l1.329.756.37-.377-1.507-1.539a8.681,8.681,0,0,0,.016-1.731,1.822,1.822,0,0,0,.53-.318,8.626,8.626,0,0,1,.05,1.6l.051.013.039.01a1.543,1.543,0,0,0,.379.062.723.723,0,0,0,.172-.02.8.8,0,0,0,.4-.246c4.118-4.211,5.985-7.552,5.875-10.516L25.072,9.58a4.281,4.281,0,0,1-1,1.839,4.135,4.135,0,0,1-1.8,1.021l-.905.924a1.993,1.993,0,0,0-.235-.324l-.024-.027c-.011-.013-.022-.025-.034-.037a1.915,1.915,0,0,0-.38-.3l.909-.926a4.272,4.272,0,0,1,1-1.835A4.123,4.123,0,0,1,24.4,8.9l2.855-2.914A3.153,3.153,0,0,0,26.711,5.94Zm-12.356,5.7-.37.377L15.017,13.9a15.265,15.265,0,0,0-3.56,1.431A20.18,20.18,0,0,0,7.95,17.769a23.934,23.934,0,0,0-2.705,2.662A1.727,1.727,0,0,0,4.922,22.1a1.675,1.675,0,0,0,1.315,1.109,1.545,1.545,0,0,0,.233.018,1.843,1.843,0,0,0,1.094-.4c.482-.351.961-.722,1.426-1.08l.09-.07c1.069-.822,2.224-1.628,3.433-2.394a15.621,15.621,0,0,1,3.673-1.764,9.974,9.974,0,0,0,.279-1.692,7.406,7.406,0,0,0-.07-1.921c-.012-.069-.027-.145-.047-.232h-.006l-1.985-2.03Z" transform="translate(60.063 57.155)" fill="#fec516"/>
        <path id="Fill_10" data-name="Fill 10" d="M.732.732,0,3.462l2,2,2.73-.732L5.46,2l-2-2Z" transform="translate(27.301 73.535)" fill="#fec516"/>
        <path id="Fill_12" data-name="Fill 12" d="M25.216,27.3H1.724A1.746,1.746,0,0,1,0,25.537V1.764A1.746,1.746,0,0,1,1.724,0H25.579a1.691,1.691,0,0,1,1.212.511,1.773,1.773,0,0,1,.51,1.281l-.362,23.771A1.749,1.749,0,0,1,25.216,27.3Zm-17-13.515a5.2,5.2,0,0,0-3.747,1.589,5.53,5.53,0,0,0,0,7.678,5.215,5.215,0,0,0,7.5,0,5.552,5.552,0,0,0,1.24-5.678l3.359-3.439a5.61,5.61,0,0,0,6.149-1.3A5.912,5.912,0,0,0,24.078,6.61l-3.15,3.226a.724.724,0,0,1-1.042,0L17.375,7.264a.769.769,0,0,1,0-1.066l3.151-3.226a5.611,5.611,0,0,0-5.887,1.4,5.946,5.946,0,0,0-1.268,6.3l-3.359,3.439A5.19,5.19,0,0,0,8.215,13.786Z" transform="translate(21.841 57.155)" fill="#fec516"/>
      </g>
      <text id="CerFix" transform="translate(68.5 179.189)" fill="#d6d5da" font-size="41" font-family="Montserrat-SemiBold, Montserrat" font-weight="600" letter-spacing="0.029em"><tspan x="-69.189" y="0">CerFix</tspan></text>
    </g>
  </g>
</svg>
